<svg width="310" height="23" viewBox="0 0 310 23" fill="none" xmlns="http://www.w3.org/2000/svg">
<path d="M0 0.0022173H5.87269C6.39241 -0.0155873 6.91023 0.0739885 7.394 0.265374C7.87777 0.45676 8.31716 0.74587 8.68487 1.11476C9.05259 1.48365 9.34078 1.92443 9.53156 2.40974C9.72233 2.89506 9.81162 3.41454 9.79388 3.93592C9.82633 4.58032 9.67976 5.22111 9.3705 5.78685C9.06124 6.35259 8.60145 6.82105 8.04237 7.14002V7.24339C8.66458 7.53042 9.18505 8.0005 9.53468 8.59124C9.88432 9.18198 10.0466 9.86543 9.99993 10.5509C10.0177 11.072 9.92842 11.5912 9.73758 12.0762C9.54675 12.5612 9.25846 13.0016 8.89064 13.37C8.52283 13.7384 8.08337 14.027 7.59962 14.2177C7.11587 14.4084 6.59817 14.4971 6.07875 14.4785H0.018181L0 0.0022173ZM5.87269 6.62325C6.23559 6.64056 6.59822 6.5838 6.93862 6.4564C7.27902 6.32901 7.5901 6.13363 7.85304 5.88211C8.11597 5.63058 8.32528 5.32814 8.46829 4.99309C8.61131 4.65804 8.68504 4.29735 8.68504 3.93288C8.68504 3.5684 8.61131 3.20773 8.46829 2.87268C8.32528 2.53763 8.11597 2.23519 7.85304 1.98366C7.5901 1.73213 7.27902 1.53676 6.93862 1.40936C6.59822 1.28197 6.23559 1.22521 5.87269 1.24252H1.23635V6.62325H5.87269ZM6.07875 13.2382C6.43399 13.25 6.78787 13.1886 7.11853 13.0578C7.44919 12.927 7.74961 12.7296 8.00122 12.4777C8.25283 12.2259 8.4503 11.925 8.58142 11.5935C8.71254 11.2621 8.77454 10.9073 8.76357 10.5509C8.79196 10.1902 8.74194 9.82763 8.61697 9.48825C8.49199 9.14887 8.29505 8.84078 8.03975 8.58524C7.78444 8.32971 7.47688 8.13283 7.1383 8.00822C6.79972 7.88362 6.43821 7.83424 6.07875 7.86353H1.23029V13.2382H6.07875Z" fill="#EB5757"/>
<g filter="url(#filter0_d_576_2)">
<path d="M25.0078 0H26.2199V14.4763H25.0078V0Z" fill="#EB5757"/>
<path d="M25.7197 0.5V13.9766H25.5078V0.5H25.7197Z" stroke="black"/>
</g>
<path d="M41.2197 7.44791C41.2197 2.9974 44.2076 0 48.0197 0C49.4516 0.0107484 50.8406 0.492309 51.9736 1.37086C53.1066 2.24941 53.9211 3.47647 54.2924 4.86394H52.953C52.6195 3.80914 51.961 2.88767 51.0724 2.23214C50.1837 1.57661 49.1106 1.22082 48.0076 1.21599C44.9167 1.21599 42.444 3.69659 42.444 7.42359C42.444 11.1506 44.9167 13.6251 48.0076 13.6251C49.1212 13.6212 50.2039 13.257 51.0948 12.5867C51.9858 11.9164 52.6374 10.9756 52.953 9.90421H54.2924C53.9313 11.3077 53.1207 12.5534 51.9853 13.4497C50.8498 14.3461 49.4523 14.8435 48.0076 14.8654C44.2076 14.8897 41.2197 11.8923 41.2197 7.44791Z" fill="#EB5757"/>
<path d="M74.65 9.04082L69.2925 0H70.6743L75.0803 7.44789H75.4924L79.8864 0H81.2682L75.9046 9.04082V14.4763H74.6924L74.65 9.04082Z" fill="#EB5757"/>
<path d="M96.2681 7.44791C96.2681 2.9974 99.2559 0 103.068 0C104.503 0.00676599 105.896 0.486493 107.033 1.36535C108.17 2.2442 108.987 3.47347 109.359 4.86394H108.02C107.685 3.80865 107.025 2.887 106.136 2.23151C105.246 1.57602 104.172 1.22047 103.068 1.21599C99.9771 1.21599 97.5044 3.69659 97.5044 7.42359C97.5044 11.1506 99.9771 13.6251 103.068 13.6251C104.183 13.6225 105.267 13.2589 106.159 12.5885C107.051 11.9181 107.704 10.9766 108.02 9.90421H109.359C108.997 11.3082 108.185 12.554 107.048 13.4503C105.912 14.3466 104.513 14.8438 103.068 14.8654C99.2559 14.8897 96.2681 11.8923 96.2681 7.44791Z" fill="#EB5757"/>
<path d="M124.359 0H125.571V13.2359H132.995V14.4519H124.359V0Z" fill="#EB5757"/>
<path d="M148.013 0H157.104V1.21598H149.25V6.59669H156.674V7.81267H149.25V13.1873H157.086V14.4033H147.995L148.013 0Z" fill="#EB5757"/>
<path d="M180 0H185.976C188.448 0 190.218 1.75709 190.218 4.34713C190.218 7.03445 188.364 8.79154 185.976 8.79154H184.533L190.509 14.4763H188.861L182.885 8.79154H181.236V14.4763H180.024L180 0ZM185.976 7.55125C187.727 7.55125 188.964 6.33526 188.964 4.34713C188.992 3.94115 188.935 3.53375 188.796 3.1513C188.657 2.76885 188.44 2.4199 188.159 2.12702C187.877 1.83414 187.537 1.60387 187.161 1.45112C186.785 1.29837 186.381 1.22655 185.976 1.24031H181.236V7.55125H185.976Z" fill="#EB5757"/>
<path d="M205.527 0H214.618V1.21598H206.764V6.59669H214.188V7.81267H206.764V13.1873H214.6V14.4033H205.509L205.527 0Z" fill="#EB5757"/>
<path d="M229.618 2.32605e-06H235.594C236.168 -0.000599503 236.736 0.11559 237.263 0.341534C237.791 0.567478 238.268 0.898488 238.664 1.31453C239.061 1.73057 239.369 2.22299 239.571 2.76202C239.772 3.30104 239.863 3.87545 239.836 4.45051C239.871 5.02232 239.785 5.595 239.585 6.13159C239.385 6.66819 239.075 7.15678 238.676 7.56583C238.276 7.97489 237.795 8.29533 237.264 8.50645C236.734 8.71758 236.164 8.81469 235.594 8.79156H230.855V14.4763H229.642L229.618 2.32605e-06ZM235.594 7.55127C235.999 7.56582 236.403 7.49479 236.78 7.34279C237.156 7.19079 237.496 6.96122 237.778 6.66891C238.061 6.37661 238.278 6.0281 238.418 5.64595C238.557 5.2638 238.615 4.85653 238.588 4.45051C238.588 2.48061 237.345 1.24031 235.594 1.24031H230.855V7.55127H235.594Z" fill="#EB5757"/>
<path d="M260.28 0H262.135L267.589 14.4763H266.377L264.892 10.5486H257.541L256.056 14.4763H254.844L260.28 0ZM264.407 9.30834L261.413 1.34365H261.001L258.013 9.30834H264.407Z" fill="#EB5757"/>
<path d="M282.589 0H283.801V14.4763H282.589V0Z" fill="#EB5757"/>
<path d="M298.801 0H304.777C307.25 0 309.019 1.75709 309.019 4.34713C309.019 7.03445 307.165 8.79154 304.777 8.79154H303.335L309.31 14.4763H307.686L301.71 8.79154H300.062V14.4763H298.85L298.801 0ZM304.777 7.55125C306.529 7.55125 307.765 6.33526 307.765 4.34713C307.793 3.94115 307.736 3.53375 307.597 3.1513C307.459 2.76885 307.241 2.4199 306.96 2.12702C306.678 1.83414 306.338 1.60387 305.962 1.45112C305.586 1.29837 305.182 1.22655 304.777 1.24031H300.038V7.55125H304.777Z" fill="#EB5757"/>
<defs>
<filter id="filter0_d_576_2" x="21.0078" y="0" width="9.21191" height="22.4763" filterUnits="userSpaceOnUse" color-interpolation-filters="sRGB">
<feFlood flood-opacity="0" result="BackgroundImageFix"/>
<feColorMatrix in="SourceAlpha" type="matrix" values="0 0 0 0 0 0 0 0 0 0 0 0 0 0 0 0 0 0 127 0" result="hardAlpha"/>
<feOffset dy="4"/>
<feGaussianBlur stdDeviation="2"/>
<feComposite in2="hardAlpha" operator="out"/>
<feColorMatrix type="matrix" values="0 0 0 0 0 0 0 0 0 0 0 0 0 0 0 0 0 0 0.25 0"/>
<feBlend mode="normal" in2="BackgroundImageFix" result="effect1_dropShadow_576_2"/>
<feBlend mode="normal" in="SourceGraphic" in2="effect1_dropShadow_576_2" result="shape"/>
</filter>
</defs>
</svg>
