<svg width="316" height="41" viewBox="0 0 316 41" fill="none" xmlns="http://www.w3.org/2000/svg">
<g filter="url(#filter0_d_30_56)">
<path d="M19.6367 0.950012C25.6138 0.950226 30.2996 5.21218 30.2998 11.8738C30.2998 17.4567 27.1122 20.6462 23.2715 21.9305L22.5791 22.1619L23.0459 22.7244L30.1826 31.3162H20.3291L13.7822 22.5555L12.8818 21.3504V31.3162H4.5V0.950012H19.6367ZM12.8818 15.0613H18.9814L19.0049 15.0594C19.7956 14.9838 20.5295 14.6152 21.0635 14.0262C21.5974 13.4371 21.8936 12.6694 21.8936 11.8738C21.8935 11.0784 21.5973 10.3114 21.0635 9.72247C20.5295 9.13341 19.7956 8.76482 19.0049 8.68927L18.9814 8.68732H12.8818V15.0613Z" fill="#EB5757" stroke="black"/>
<path d="M50.0054 0.5C58.4524 0.500141 64.9174 6.98428 64.9175 16.1299C64.9175 25.2749 58.4228 31.7596 50.0054 31.7598C41.588 31.7598 35.0991 25.2812 35.0991 16.1299C35.0992 6.98392 41.5585 0.5 50.0054 0.5ZM49.9751 8.68652C46.2726 8.68652 43.4146 11.6447 43.4146 16.1299C43.4146 20.6145 46.272 23.5791 49.9751 23.5791C53.678 23.5789 56.5356 20.6144 56.5356 16.1299C56.5356 11.6448 53.6774 8.68669 49.9751 8.68652Z" fill="#EB5757" stroke="black"/>
<path d="M78.9834 0.950012V18.3738C78.9834 19.9325 79.4631 21.2383 80.3174 22.159C81.1738 23.082 82.3716 23.5799 83.7256 23.5799C85.0795 23.5799 86.2773 23.082 87.1338 22.159C87.988 21.2383 88.4677 19.9325 88.4678 18.3738V0.950012H96.8438V18.3738C96.8437 22.5235 95.5396 25.8605 93.2754 28.158C91.0118 30.4548 87.7422 31.7605 83.7197 31.7606C79.6972 31.7606 76.4291 30.4548 74.167 28.158C71.9043 25.8605 70.6016 22.5237 70.6016 18.3738V0.950012H78.9834Z" fill="#EB5757" stroke="black"/>
<path d="M113.346 0.950012L120.135 14.3436L120.273 14.618H121.972V0.950012H130.354V31.3162H120.663L113.881 17.9412L113.742 17.6668H112.038V31.3348H103.656V0.950012H113.346Z" fill="#EB5757" stroke="black"/>
<path d="M148.938 0.950012C157.6 0.950122 164.074 7.44296 164.074 16.1297C164.074 24.8175 157.629 31.3161 148.938 31.3162H137.383V0.950012H148.938ZM145.759 23.1297H149.162C152.811 23.1297 155.722 20.1958 155.722 16.1297C155.722 12.0648 152.842 9.13654 149.162 9.13654H145.759V23.1297Z" fill="#EB5757" stroke="black"/>
<path d="M199.194 0.950012C205.171 0.950219 209.857 5.21218 209.857 11.8738C209.857 17.4567 206.669 20.6462 202.829 21.9305L202.136 22.1619L202.603 22.7244L209.74 31.3162H199.886L193.339 22.5555L192.439 21.3504V31.3162H184.057V0.950012H199.194ZM192.439 15.0613H198.544L198.568 15.0594C199.359 14.9838 200.093 14.6151 200.626 14.0262C201.16 13.4371 201.457 12.6694 201.457 11.8738C201.456 11.0784 201.16 10.3114 200.626 9.72247C200.093 9.13347 199.359 8.76482 198.568 8.68927L198.544 8.68732H192.439V15.0613Z" fill="#EB5757" stroke="black"/>
<path d="M229.562 0.5C237.98 0.500144 244.475 6.98494 244.475 16.1299C244.475 25.2749 237.98 31.7596 229.562 31.7598C221.145 31.7598 214.656 25.2812 214.656 16.1299C214.656 6.98458 221.145 0.5 229.562 0.5ZM229.562 8.68652C225.889 8.68652 223.032 11.6464 223.032 16.1299C223.032 20.6128 225.888 23.5791 229.562 23.5791C233.237 23.579 236.093 20.6127 236.093 16.1299C236.093 11.6465 233.236 8.68667 229.562 8.68652Z" fill="#EB5757" stroke="black"/>
<path d="M264.181 0.5C271.744 0.500027 277.058 5.61126 278.331 12.7178H269.912C269.537 11.5809 268.826 10.5818 267.866 9.85938C266.868 9.10841 265.658 8.69818 264.415 8.68457L264.166 8.68652C260.499 8.69487 257.651 11.6527 257.651 16.1299C257.651 20.6128 260.507 23.5791 264.181 23.5791C265.742 23.5791 267.032 23.0951 268.022 22.2568C268.913 21.5022 269.537 20.4803 269.911 19.3232H278.333C277.066 26.6503 271.747 31.7656 264.181 31.7656L263.789 31.7607C255.562 31.5569 249.269 25.138 249.269 16.1299C249.269 6.98484 255.764 0.5 264.181 0.5Z" fill="#EB5757" stroke="black"/>
<path d="M292.71 0.950012V13.2176L293.653 13.45L300.215 0.950012H309.79L301.711 15.6649L301.575 15.9139L301.719 16.159L310.656 31.3162H301.096L293.646 18.1277L292.71 16.4715V31.3162H284.334V0.950012H292.71Z" fill="#EB5757" stroke="black"/>
</g>
<defs>
<filter id="filter0_d_30_56" x="0" y="0" width="315.531" height="40.2661" filterUnits="userSpaceOnUse" color-interpolation-filters="sRGB">
<feFlood flood-opacity="0" result="BackgroundImageFix"/>
<feColorMatrix in="SourceAlpha" type="matrix" values="0 0 0 0 0 0 0 0 0 0 0 0 0 0 0 0 0 0 127 0" result="hardAlpha"/>
<feOffset dy="4"/>
<feGaussianBlur stdDeviation="2"/>
<feComposite in2="hardAlpha" operator="out"/>
<feColorMatrix type="matrix" values="0 0 0 0 0 0 0 0 0 0 0 0 0 0 0 0 0 0 0.25 0"/>
<feBlend mode="normal" in2="BackgroundImageFix" result="effect1_dropShadow_30_56"/>
<feBlend mode="normal" in="SourceGraphic" in2="effect1_dropShadow_30_56" result="shape"/>
</filter>
</defs>
</svg>
